#N canvas 294 482 871 66 10;
#X obj 10 9 r sangle;
#X obj 72 9 r sveloc;
#X obj 134 9 r saccel;
#X obj 10 37 outlet;
#X obj 72 37 outlet;
#X obj 134 37 outlet;
#X obj 206 37 outlet;
#X obj 268 37 outlet;
#X obj 330 37 outlet;
#X obj 402 37 outlet;
#X obj 464 37 outlet;
#X obj 536 37 outlet;
#X obj 598 37 outlet;
#X obj 670 37 outlet;
#X obj 732 37 outlet;
#X obj 206 9 r tangle;
#X obj 268 9 r tveloc;
#X obj 330 9 r taccel;
#X obj 402 9 r tvectx;
#X obj 464 9 r tvecty;
#X obj 536 9 r tscvex;
#X obj 598 9 r tscvey;
#X obj 670 9 r tscacx;
#X obj 732 9 r tscacy;
#X obj 804 37 outlet;
#X obj 804 9 r opacit;
#X connect 0 0 3 0;
#X connect 1 0 4 0;
#X connect 2 0 5 0;
#X connect 15 0 6 0;
#X connect 16 0 7 0;
#X connect 17 0 8 0;
#X connect 18 0 9 0;
#X connect 19 0 10 0;
#X connect 20 0 11 0;
#X connect 21 0 12 0;
#X connect 22 0 13 0;
#X connect 23 0 14 0;
#X connect 25 0 24 0;
